<svg width="331" height="100" viewBox="0 0 331 100" fill="none" xmlns="http://www.w3.org/2000/svg">
<path d="M-4.32343e-06 98.9086L-4.7707e-08 1.09139L20.0219 1.09139L36.4938 59.6862L36.4938 1.09139L50.7647 1.09139L50.7647 98.9086L34.2928 98.9086L14.4129 28.1037L14.4129 98.9086L-4.32343e-06 98.9086Z" fill="#005EB8" fill-opacity="0.5"/>
<path d="M60.8466 75.4434L60.8466 24.5566C60.8466 16.7349 62.9529 10.6867 67.1656 6.41199C71.3782 2.13732 77.3895 -1.07577e-05 85.1995 -1.07443e-05C93.0094 -1.07309e-05 98.9971 2.13732 103.162 6.41199C107.375 10.6867 109.481 16.7349 109.481 24.5566L109.481 75.4434C109.481 83.2651 107.375 89.3133 103.162 93.588C98.9971 97.8627 93.0094 100 85.1995 100C77.3895 100 71.3782 97.8627 67.1656 93.588C62.9529 89.3133 60.8466 83.2651 60.8466 75.4434ZM76.8925 76.3984C76.8925 82.8558 79.6615 86.0846 85.1995 86.0846C90.6901 86.0846 93.4354 82.8558 93.4354 76.3984L93.4354 23.6016C93.4354 17.1896 90.6901 13.9836 85.1995 13.9836C79.6615 13.9836 76.8925 17.1896 76.8925 23.6016L76.8925 76.3984Z" fill="#005EB8" fill-opacity="0.5"/>
<path d="M138.804 1.09139L154.353 1.09139L162.944 78.2401L170.612 1.09139L186.019 1.09139L194.042 78.7858L202.349 1.09139L216.265 1.09139L204.976 98.9086L183.747 98.9086L177.925 46.794L172.103 98.9086L150.093 98.9086L138.804 1.09139Z" fill="#005EB8" fill-opacity="0.5"/>
<path d="M217.898 98.9086L234.157 1.09139L257.586 1.09139L273.845 98.9086L257.728 98.9086L254.959 81.1733L235.293 81.1733L232.524 98.9086L217.898 98.9086ZM237.352 67.8717L252.758 67.8717L245.091 18.4175L237.352 67.8717Z" fill="#005EB8" fill-opacity="0.5"/>
<path d="M281.3 98.9086L281.3 1.09139L305.44 1.09139C313.629 1.09139 319.616 2.93314 323.403 6.61663C327.237 10.3001 329.154 15.9618 329.154 23.6016L329.154 31.3097C329.154 41.3597 325.651 47.9763 318.646 51.1596C322.48 52.7058 325.202 55.2069 326.811 58.663C328.468 62.1191 329.296 66.553 329.296 71.9645L329.296 87.0396C329.296 92.4511 329.864 96.4074 331 98.9086L314.741 98.9086C314.362 97.7717 314.102 96.9304 313.96 96.3847C313.818 95.7935 313.652 94.7021 313.463 93.1105C313.321 91.4734 313.25 89.4043 313.25 86.9031L313.25 71.5552C313.25 67.0532 312.422 63.8472 310.765 61.9372C309.108 60.0273 306.458 59.0723 302.813 59.0723L297.275 59.0723L297.275 98.9086L281.3 98.9086ZM297.275 45.1569L303.523 45.1569C306.694 45.1569 309.085 44.3838 310.694 42.8376C312.303 41.246 313.108 38.563 313.108 34.7885L313.108 25.1705C313.108 21.6689 312.469 19.1223 311.191 17.5307C309.913 15.8936 307.854 15.075 305.014 15.075L297.275 15.075L297.275 45.1569Z" fill="#005EB8" fill-opacity="0.5"/>
</svg>
